<svg xmlns="http://www.w3.org/2000/svg" viewBox="0 0 813.74 77.5"><defs><style>.cls-1{fill:#000d22;}</style></defs><title>logo-black</title><g id="Layer_2" data-name="Layer 2"><g id="Layer_3" data-name="Layer 3"><path class="cls-1" d="M170.29,9.52h14.06V49.66a19.16,19.16,0,0,1-2.59,10,17.68,17.68,0,0,1-7.23,6.79,22,22,0,0,1-10.34,2.41q-9.57,0-14.87-4.82T144,50.34h14.14q0,4,1.39,5.83c.92,1.2,2.47,1.81,4.64,1.81a5.26,5.26,0,0,0,4.52-2.19,10.37,10.37,0,0,0,1.58-6.13Z"/><path class="cls-1" d="M233.72,57.09H214.4L211,68H196l21.45-58.5h13.26L252.28,68H237.13ZM217.77,46.2h12.57L224,25.92Z"/><path class="cls-1" d="M311.17,48.21A21.39,21.39,0,0,1,307.87,59a19.86,19.86,0,0,1-8.46,7.25A28.68,28.68,0,0,1,287,68.82q-11.53,0-18.16-7.51T262.19,40.1V37.21a35.33,35.33,0,0,1,3-15,22.59,22.59,0,0,1,8.61-10,24,24,0,0,1,13-3.52q10.65,0,17.11,5.61t7.36,15.44H297.22q-.15-5.34-2.69-7.67c-1.68-1.55-4.26-2.33-7.71-2.33s-6.08,1.31-7.71,3.94-2.49,6.81-2.57,12.57v4.14q0,9.36,2.34,13.38t8.1,4q4.86,0,7.43-2.29c1.72-1.52,2.63-3.95,2.73-7.27Z"/><path class="cls-1" d="M362.82,44.72H340.08V68H326V9.52h39.13V20.41h-25V33.87h22.74Z"/><path class="cls-1" d="M428.65,40a34.42,34.42,0,0,1-3.17,15.14,23.44,23.44,0,0,1-9,10.15,25.11,25.11,0,0,1-13.32,3.55,25.43,25.43,0,0,1-13.25-3.43,23.37,23.37,0,0,1-9-9.83,33.43,33.43,0,0,1-3.4-14.66V37.61a34.57,34.57,0,0,1,3.16-15.17,23.31,23.31,0,0,1,9-10.14,26.72,26.72,0,0,1,26.65,0,23.83,23.83,0,0,1,9.06,10.06,33.5,33.5,0,0,1,3.27,15Zm-14.34-2.45q0-8.73-2.91-13.24a9.35,9.35,0,0,0-8.34-4.52q-10.6,0-11.2,15.91l0,4.3q0,8.6,2.85,13.21a9.91,9.91,0,0,0,16.71.08q2.89-4.53,2.93-13.05Z"/><path class="cls-1" d="M465,29l9.56-19.45h16.11l-16.35,29L491.12,68H474.85L465,48.21,455.16,68H438.93l16.75-29.49-16.31-29h16.07Z"/><path class="cls-1" d="M551,9.52l13,40.7,13-40.7h18.56V68H581.49V54.36l1.36-28L568.71,68h-9.32L545.21,26.36l1.37,28V68h-14.1V9.52Z"/><path class="cls-1" d="M649,43.19H626.84v14H653V68h-40.3V9.52h40.38V20.41H626.84V32.75H649Z"/><path class="cls-1" d="M666.92,68V9.52h18.84A27.74,27.74,0,0,1,699.7,13,24.61,24.61,0,0,1,709.36,23a30,30,0,0,1,3.52,14.37V40a30.05,30.05,0,0,1-3.4,14.4,24.72,24.72,0,0,1-9.56,10A27.12,27.12,0,0,1,686.16,68ZM681,20.41V57.17h4.9q6.08,0,9.32-4.32T698.5,40V37.49q0-8.48-3.26-12.78t-9.48-4.3Z"/><path class="cls-1" d="M743.28,68H729.22V9.52h14.06Z"/><path class="cls-1" d="M795.18,57.09H775.85L772.48,68H757.41l21.46-58.5h13.25L813.74,68H798.59ZM779.23,46.2H791.8l-6.31-20.28Z"/><path class="cls-1" d="M118.53,28.49A28.65,28.65,0,0,1,90.5,57h-62a7.24,7.24,0,0,1-2.55-.44,6.43,6.43,0,0,1-1.18-.5,8,8,0,0,1,3.73-15H49v1a8.55,8.55,0,1,0,17.1,0V41H90a12.56,12.56,0,0,0,12.54-12.54,12.15,12.15,0,0,0-1-4.78,9.11,9.11,0,0,0-.52-1.1,13.31,13.31,0,0,0-1.39-2.09c-.28-.32-.55-.62-.82-.89A11.89,11.89,0,0,0,96,17.48c-.36-.2-.73-.38-1.09-.54s-.82-.32-1.23-.44a9.34,9.34,0,0,0-1.19-.29A12.83,12.83,0,0,0,90,16H79.78a8,8,0,0,1-8-8,7.49,7.49,0,0,1,.3-2.12A8,8,0,0,1,79.78,0H90.59A28.63,28.63,0,0,1,118.53,28.49Z"/><path class="cls-1" d="M95.1,22.34a5.68,5.68,0,0,1,.57.52v0A5.51,5.51,0,0,0,95.1,22.34Zm.57.52v0a5.51,5.51,0,0,0-.57-.5A5.68,5.68,0,0,1,95.67,22.86Zm-.57-.52a5.68,5.68,0,0,1,.57.52v0A5.51,5.51,0,0,0,95.1,22.34Z"/><path class="cls-1" d="M98,28.49a8,8,0,0,1-8,8h-24a8.54,8.54,0,0,0-17,0H28.49A12.54,12.54,0,0,0,16.91,53.8a7.79,7.79,0,0,0,.53,1.09A11.58,11.58,0,0,0,18.83,57c.27.32.55.61.82.89A12,12,0,0,0,22.52,60c.37.2.73.39,1.1.55a12,12,0,0,0,1.23.43,7.86,7.86,0,0,0,1.18.3,12.52,12.52,0,0,0,2.46.25H38.75a8,8,0,0,1,8,8,7.24,7.24,0,0,1-.3,2.12,8,8,0,0,1-7.68,5.85H28a28.49,28.49,0,0,1,.09-57H90a7.31,7.31,0,0,1,2.55.43,7.86,7.86,0,0,1,1.19.5,7.45,7.45,0,0,1,1.32.89,5.68,5.68,0,0,1,.57.52A8,8,0,0,1,98,28.49Z"/><path class="cls-1" d="M95.67,22.84v0a5.68,5.68,0,0,0-.57-.52A5.51,5.51,0,0,1,95.67,22.84Z"/><path class="cls-1" d="M61.55,37v5a4,4,0,1,1-8,0V37a2.12,2.12,0,0,1,.07-.57,4,4,0,0,1,7.84,0A2.62,2.62,0,0,1,61.55,37Z"/></g></g></svg>